<svg version="1.1" id="Layer_1" xmlns="http://www.w3.org/2000/svg" xmlns:xlink="http://www.w3.org/1999/xlink" x="0px" y="0px"
	 width="100%" viewBox="0 0 200 68" enable-background="new 0 0 200 68" xml:space="preserve">
<path fill="#ffffff" opacity="0.000000" stroke="none" 
	d="
M95.000000,69.000000 
	C63.692947,69.000000 32.385891,69.000000 1.039419,69.000000 
	C1.039419,46.378677 1.039419,23.757275 1.039419,1.067935 
	C67.565407,1.067935 134.130905,1.067935 200.848206,1.067935 
	C200.848206,23.545544 200.848206,46.092453 200.848206,69.000000 
	C170.646729,69.000000 140.292023,69.000000 109.559998,68.671341 
	C109.679367,67.927620 110.122154,67.410965 110.681580,67.114159 
	C114.059425,65.322083 117.250839,63.092812 116.485313,58.801044 
	C115.661110,54.180294 111.659058,53.371651 107.674286,53.008526 
	C106.680923,52.918003 105.675133,52.876816 104.700508,52.684147 
	C101.857071,52.122040 99.026512,51.494808 96.190903,50.893101 
	C96.242165,50.196854 96.293427,49.500603 96.344688,48.804352 
	C98.494057,48.530914 100.636322,48.121601 102.794090,48.008778 
	C110.114487,47.626011 113.561249,43.542496 112.987587,36.303509 
	C112.778641,33.666813 113.653900,30.957705 113.590843,28.292128 
	C113.528122,25.640667 112.908272,23.002384 112.532722,20.358324 
	C111.826866,20.372633 111.121002,20.386942 110.415138,20.401251 
	C110.012131,21.504986 109.132942,22.681150 109.287918,23.700018 
	C109.987373,28.298676 108.015335,29.189302 103.865723,28.532543 
	C95.892311,27.270594 90.117706,32.953743 92.347641,40.812340 
	C93.960701,46.497021 90.889893,50.674210 89.879196,55.424862 
	C89.040565,59.366707 88.658478,62.455231 91.829941,65.333015 
	C93.017754,66.410835 93.950798,67.769424 95.000000,69.000000 
M68.416855,30.046604 
	C67.623039,29.112150 66.180740,28.203911 66.141739,27.238943 
	C65.906479,21.419146 66.156044,15.578027 65.859642,9.763603 
	C65.782692,8.253981 64.610138,5.887652 63.456757,5.545208 
	C61.384315,4.929894 58.945446,5.548751 56.659683,5.651932 
	C56.871944,6.685728 56.939339,8.558757 57.318741,8.624249 
	C61.369980,9.323551 60.982105,12.339702 60.989986,15.166244 
	C61.022942,26.989782 60.966324,38.814598 61.165787,50.635174 
	C61.187454,51.919071 62.653103,53.178600 63.448967,54.449432 
	C64.284592,53.218594 65.709930,52.048061 65.843147,50.745388 
	C66.214355,47.115589 65.895454,43.420700 66.138908,39.770844 
	C66.393173,35.958782 70.604622,32.071709 74.254768,32.378983 
	C78.812721,32.762672 78.960922,36.313328 78.986855,39.777184 
	C79.009293,42.774620 78.735588,45.811497 79.143501,48.754612 
	C79.381264,50.470100 80.325600,52.893909 81.624809,53.462921 
	C83.472382,54.272102 85.938721,53.668507 88.140694,53.668507 
	C88.485680,53.035343 88.830666,52.402184 89.175652,51.769020 
	C81.327888,49.862217 83.160568,44.162334 83.000664,39.247303 
	C82.968185,38.248962 82.940590,37.247395 82.981804,36.250256 
	C83.164787,31.823305 80.994308,29.179928 76.673630,28.867683 
	C74.141701,28.684710 71.545006,29.397793 68.416855,30.046604 
M120.573227,50.791458 
	C124.690216,55.120533 129.705795,55.931263 135.184067,54.256226 
	C140.874100,52.516445 143.034348,48.106689 143.593201,42.553333 
	C144.243378,36.092350 139.250595,29.595791 133.115646,29.059616 
	C124.006454,28.263502 118.339470,32.218399 118.180046,40.117542 
	C118.112900,43.444038 119.459274,46.799068 120.573227,50.791458 
z"/>
<path fill="#292F38" opacity="1.000000" stroke="none" 
	d="
M95.464645,69.000000 
	C93.950798,67.769424 93.017754,66.410835 91.829941,65.333015 
	C88.658478,62.455231 89.040565,59.366707 89.879196,55.424862 
	C90.889893,50.674210 93.960701,46.497021 92.347641,40.812340 
	C90.117706,32.953743 95.892311,27.270594 103.865723,28.532543 
	C108.015335,29.189302 109.987373,28.298676 109.287918,23.700018 
	C109.132942,22.681150 110.012131,21.504986 110.415138,20.401251 
	C111.121002,20.386942 111.826866,20.372633 112.532722,20.358324 
	C112.908272,23.002384 113.528122,25.640667 113.590843,28.292128 
	C113.653900,30.957705 112.778641,33.666813 112.987587,36.303509 
	C113.561249,43.542496 110.114487,47.626011 102.794090,48.008778 
	C100.636322,48.121601 98.494057,48.530914 96.344688,48.804352 
	C96.293427,49.500603 96.242165,50.196854 96.190903,50.893101 
	C99.026512,51.494808 101.857071,52.122040 104.700508,52.684147 
	C105.675133,52.876816 106.680923,52.918003 107.674286,53.008526 
	C111.659058,53.371651 115.661110,54.180294 116.485313,58.801044 
	C117.250839,63.092812 114.059425,65.322083 110.681580,67.114159 
	C110.122154,67.410965 109.679367,67.927620 109.091339,68.671341 
	C104.643097,69.000000 100.286201,69.000000 95.464645,69.000000 
M102.436668,64.793243 
	C104.654480,64.143066 107.008995,63.762333 109.035133,62.734367 
	C110.124985,62.181427 111.085007,60.573444 111.242958,59.332008 
	C111.317902,58.742916 109.459557,57.466011 108.333199,57.249653 
	C105.089325,56.626572 101.773674,56.129910 98.483223,56.111198 
	C97.049690,56.103043 95.608833,57.382763 94.171303,58.077591 
	C95.080940,59.834209 95.660271,61.930668 97.005974,63.238644 
	C98.060188,64.263321 100.063446,64.311592 102.436668,64.793243 
M102.421608,43.897293 
	C105.958115,43.585491 109.109344,41.847572 108.374489,38.243954 
	C107.913063,35.981171 104.764915,32.830009 102.698395,32.733723 
	C100.621437,32.636955 97.254822,35.443005 96.489777,37.674999 
	C95.291664,41.170406 97.981064,43.385120 102.421608,43.897293 
z"/>
<path fill="#2A2F37" opacity="1.000000" stroke="none" 
	d="
M68.697151,29.877201 
	C71.545006,29.397793 74.141701,28.684710 76.673630,28.867683 
	C80.994308,29.179928 83.164787,31.823305 82.981804,36.250256 
	C82.940590,37.247395 82.968185,38.248962 83.000664,39.247303 
	C83.160568,44.162334 81.327888,49.862217 89.175652,51.769020 
	C88.830666,52.402184 88.485680,53.035343 88.140694,53.668507 
	C85.938721,53.668507 83.472382,54.272102 81.624809,53.462921 
	C80.325600,52.893909 79.381264,50.470100 79.143501,48.754612 
	C78.735588,45.811497 79.009293,42.774620 78.986855,39.777184 
	C78.960922,36.313328 78.812721,32.762672 74.254768,32.378983 
	C70.604622,32.071709 66.393173,35.958782 66.138908,39.770844 
	C65.895454,43.420700 66.214355,47.115589 65.843147,50.745388 
	C65.709930,52.048061 64.284592,53.218594 63.448967,54.449432 
	C62.653103,53.178600 61.187454,51.919071 61.165787,50.635174 
	C60.966324,38.814598 61.022942,26.989782 60.989986,15.166244 
	C60.982105,12.339702 61.369980,9.323551 57.318741,8.624249 
	C56.939339,8.558757 56.871944,6.685728 56.659683,5.651932 
	C58.945446,5.548751 61.384315,4.929894 63.456757,5.545208 
	C64.610138,5.887652 65.782692,8.253981 65.859642,9.763603 
	C66.156044,15.578027 65.906479,21.419146 66.141739,27.238943 
	C66.180740,28.203911 67.623039,29.112150 68.697151,29.877201 
z"/>
<path fill="#292F38" opacity="1.000000" stroke="none" 
	d="
M120.368164,50.466293 
	C119.459274,46.799068 118.112900,43.444038 118.180046,40.117542 
	C118.339470,32.218399 124.006454,28.263502 133.115646,29.059616 
	C139.250595,29.595791 144.243378,36.092350 143.593201,42.553333 
	C143.034348,48.106689 140.874100,52.516445 135.184067,54.256226 
	C129.705795,55.931263 124.690216,55.120533 120.368164,50.466293 
M126.789246,50.034386 
	C131.132797,51.766827 134.925064,51.367973 137.522400,47.030689 
	C139.902405,43.056316 139.659897,39.089130 136.789856,35.487255 
	C134.261765,32.314507 130.799408,32.116798 127.317924,33.499546 
	C120.992783,36.011707 120.505379,43.592003 126.789246,50.034386 
z"/>
<path fill="#000000" opacity="1.000000" stroke="none" 
	d="
M102.040863,64.793457 
	C100.063446,64.311592 98.060188,64.263321 97.005974,63.238644 
	C95.660271,61.930668 95.080940,59.834209 94.171303,58.077591 
	C95.608833,57.382763 97.049690,56.103043 98.483223,56.111198 
	C101.773674,56.129910 105.089325,56.626572 108.333199,57.249653 
	C109.459557,57.466011 111.317902,58.742916 111.242958,59.332008 
	C111.085007,60.573444 110.124985,62.181427 109.035133,62.734367 
	C107.008995,63.762333 104.654480,64.143066 102.040863,64.793457 
z"/>
<path fill="#000000" opacity="1.000000" stroke="none" 
	d="
M102.033043,43.894295 
	C97.981064,43.385120 95.291664,41.170406 96.489777,37.674999 
	C97.254822,35.443005 100.621437,32.636955 102.698395,32.733723 
	C104.764915,32.830009 107.913063,35.981171 108.374489,38.243954 
	C109.109344,41.847572 105.958115,43.585491 102.033043,43.894295 
z"/>
<path fill="#000000" opacity="1.000000" stroke="none" 
	d="
M126.484352,49.796997 
	C120.505379,43.592003 120.992783,36.011707 127.317924,33.499546 
	C130.799408,32.116798 134.261765,32.314507 136.789856,35.487255 
	C139.659897,39.089130 139.902405,43.056316 137.522400,47.030689 
	C134.925064,51.367973 131.132797,51.766827 126.484352,49.796997 
z"/>
</svg>